<?xml version="1.0" standalone="no"?>
<!DOCTYPE svg PUBLIC "-//W3C//DTD SVG 20010904//EN"
 "http://www.w3.org/TR/2001/REC-SVG-20010904/DTD/svg10.dtd">
<svg version="1.0" xmlns="http://www.w3.org/2000/svg"
 width="512.000000pt" height="512.000000pt" viewBox="0 0 512.000000 512.000000"
 preserveAspectRatio="xMidYMid meet">

<g transform="translate(0.000000,512.000000) scale(0.100000,-0.100000)"
fill="#000000" stroke="none">
<path d="M4551 4055 c-77 -54 -727 -372 -1196 -585 -88 -40 -164 -76 -168 -80
-4 -3 19 -14 51 -23 76 -21 122 -62 122 -109 0 -27 -22 -63 -113 -188 -63 -85
-169 -234 -236 -330 -67 -96 -130 -185 -139 -197 l-17 -22 -301 212 c-166 117
-365 256 -443 310 -136 94 -141 99 -141 133 0 42 12 68 52 111 l30 31 -113
-35 c-581 -178 -1226 -300 -1789 -339 l-105 -8 74 -12 c187 -33 549 -58 1041
-74 l345 -12 28 -31 c15 -18 69 -87 120 -154 92 -122 92 -122 157 -144 335
-112 735 -303 999 -477 79 -52 83 -56 60 -64 -42 -16 -298 -21 -409 -9 -423
48 -916 219 -1070 370 -31 31 -67 79 -79 106 -29 62 -38 156 -21 226 7 30 13
56 12 59 -2 8 -62 19 -169 29 -239 24 -532 -43 -746 -170 l-69 -41 29 -30 c46
-50 221 -187 323 -253 385 -251 851 -408 1425 -481 217 -28 691 -26 880 4 437
68 960 257 1349 486 231 136 528 398 644 569 132 192 188 410 129 498 -29 43
-126 92 -227 114 -117 26 -445 31 -655 10 -93 -9 -180 -19 -193 -22 -22 -5
-21 -7 20 -34 70 -46 153 -135 184 -197 25 -50 29 -68 29 -147 0 -109 -19
-156 -115 -285 -184 -247 -479 -486 -795 -646 -132 -66 -250 -112 -261 -101
-7 7 143 212 275 377 138 171 418 492 595 680 l127 135 -45 42 c-25 22 -84 61
-131 85 -47 23 -85 45 -85 48 1 10 95 106 169 173 42 38 120 100 175 139 119
85 242 187 356 296 84 80 97 103 31 57z"/>
</g>
</svg>
