<?xml version="1.0" encoding="iso-8859-1"?>
<!-- Uploaded to: SVG Repo, www.svgrepo.com, Generator: SVG Repo Mixer Tools -->
<svg height="800px" width="800px" version="1.1" id="Layer_1" xmlns="http://www.w3.org/2000/svg" xmlns:xlink="http://www.w3.org/1999/xlink" 
	 viewBox="0 0 512 512" xml:space="preserve">
<path style="fill:#F285B9;" d="M405.374,87.872C365.953,31.207,312.905,0,255.999,0S146.046,31.207,106.625,87.872
	C68.58,142.563,47.627,214.958,47.627,291.721C47.627,413.183,141.102,512,255.999,512s208.372-98.817,208.372-220.279
	C464.372,214.958,443.419,142.563,405.374,87.872z"/>
<path style="fill:#EE5DA2;" d="M255.999,512c114.898,0,208.372-98.817,208.372-220.279c0-76.763-20.953-149.157-58.998-203.849
	C365.953,31.207,312.905,0,255.999,0"/>
<g>
	<path style="fill:#FFC170;" d="M446.452,381.023c10.637-25.256,16.916-52.998,17.8-82.158H47.749
		c0.883,29.16,7.162,56.902,17.8,82.158H446.452z"/>
	<path style="fill:#FFC170;" d="M456.32,210.753c-6.814-33.388-17.852-64.792-32.722-92.874H88.399
		c-14.869,28.083-25.907,59.486-32.72,92.874H456.32z"/>
</g>
<g>
	<path style="fill:#FF9811;" d="M456.32,210.753c-6.814-33.388-17.852-64.792-32.722-92.874H255.999v92.874H456.32z"/>
	<path style="fill:#FF9811;" d="M446.452,381.023c10.637-25.256,16.916-52.998,17.8-82.158H255.999v82.158H446.452z"/>
</g>
<g>
	<path style="fill:#FFF8DA;" d="M47.627,291.721c0,7.434,0.355,14.781,1.039,22.028h414.666c0.683-7.247,1.039-14.594,1.039-22.028
		c0-4.582-0.08-9.146-0.227-13.693H47.855C47.707,282.575,47.627,287.139,47.627,291.721z"/>
	<path style="fill:#FFF8DA;" d="M412.242,98.233H99.757c-7.125,11.275-13.557,23.222-19.287,35.721h351.058
		C425.798,121.455,419.367,109.507,412.242,98.233z"/>
	<path style="fill:#FFF8DA;" d="M77.391,213.73c9.123,0,12.749,2.61,19.331,7.35c8.254,5.943,19.558,14.082,40.204,14.082
		c20.644,0,31.949-8.14,40.203-14.082c6.582-4.739,10.208-7.35,19.33-7.35c9.126,0,12.751,2.611,19.335,7.35
		c8.255,5.943,19.561,14.082,40.206,14.082s31.95-8.138,40.206-14.082c6.583-4.739,10.21-7.35,19.335-7.35
		c9.122,0,12.748,2.61,19.329,7.35c8.254,5.943,19.558,14.082,40.202,14.082c20.644,0,31.949-8.14,40.203-14.082
		c6.581-4.739,10.208-7.35,19.329-7.35c9.123,0,12.749,2.61,19.331,7.35c1.525,1.099,3.158,2.273,4.932,3.457
		c-2.578-15.467-6.042-30.557-10.361-45.146c-4.11-0.866-8.709-1.381-13.901-1.381c-20.644,0-31.949,8.14-40.203,14.082
		c-6.581,4.739-10.208,7.35-19.329,7.35c-9.121,0-12.748-2.61-19.329-7.35c-8.254-5.943-19.558-14.082-40.202-14.082
		c-20.646,0-31.951,8.138-40.206,14.082c-6.583,4.739-10.21,7.35-19.335,7.35s-12.751-2.611-19.335-7.35
		c-8.255-5.943-19.561-14.082-40.206-14.082c-20.643,0-31.949,8.14-40.202,14.082c-6.582,4.739-10.208,7.35-19.33,7.35
		c-9.123,0-12.749-2.61-19.331-7.35c-8.254-5.943-19.558-14.082-40.203-14.082c-5.188,0-9.785,0.516-13.894,1.38
		c-4.319,14.588-7.784,29.678-10.361,45.144c1.772-1.182,3.402-2.355,4.926-3.452C64.644,216.34,68.269,213.73,77.391,213.73z"/>
	<path style="fill:#FFF8DA;" d="M394.398,370.696c-6.581,4.739-10.208,7.35-19.329,7.35s-12.748-2.61-19.329-7.35
		c-8.254-5.943-19.558-14.082-40.202-14.082c-20.646,0-31.951,8.138-40.206,14.082c-6.583,4.739-10.21,7.35-19.335,7.35
		c-9.124,0-12.751-2.611-19.335-7.35c-8.255-5.943-19.561-14.082-40.206-14.082c-20.643,0-31.949,8.14-40.202,14.082
		c-6.582,4.739-10.208,7.35-19.33,7.35c-9.123,0-12.749-2.61-19.331-7.35c-8.254-5.943-19.558-14.082-40.203-14.082
		c-7.76,0-14.199,1.15-19.652,2.902c3.552,11.582,7.984,22.747,13.22,33.406c1.85-0.383,3.93-0.587,6.432-0.587
		c9.123,0,12.749,2.61,19.331,7.35c8.254,5.943,19.558,14.082,40.204,14.082c20.644,0,31.949-8.14,40.203-14.082
		c6.582-4.739,10.208-7.35,19.33-7.35c9.126,0,12.751,2.611,19.335,7.35c8.255,5.943,19.561,14.082,40.206,14.082
		s31.95-8.138,40.206-14.082c6.583-4.739,10.21-7.35,19.335-7.35c9.122,0,12.748,2.61,19.329,7.35
		c8.254,5.943,19.558,14.082,40.202,14.082c20.644,0,31.949-8.14,40.203-14.082c6.581-4.739,10.208-7.35,19.329-7.35
		c2.505,0,4.588,0.204,6.439,0.588c5.237-10.658,9.668-21.823,13.22-33.405c-5.456-1.752-11.896-2.903-19.66-2.903
		C413.956,356.614,402.653,364.754,394.398,370.696z"/>
</g>
<g>
	<path style="fill:#FFD6A0;" d="M255.998,235.163c20.646,0,31.95-8.138,40.206-14.082c6.583-4.739,10.21-7.35,19.335-7.35
		c9.122,0,12.748,2.61,19.329,7.35c8.254,5.943,19.558,14.082,40.202,14.082c20.644,0,31.949-8.14,40.203-14.082
		c6.581-4.739,10.208-7.35,19.329-7.35c9.123,0,12.749,2.61,19.331,7.35c1.525,1.099,3.158,2.273,4.932,3.457
		c-2.578-15.467-6.042-30.557-10.361-45.146c-4.11-0.866-8.709-1.381-13.901-1.381c-20.644,0-31.949,8.14-40.203,14.082
		c-6.581,4.739-10.208,7.35-19.329,7.35s-12.748-2.61-19.329-7.35c-8.254-5.943-19.558-14.082-40.202-14.082
		c-20.646,0-31.951,8.138-40.206,14.082c-6.583,4.739-10.21,7.35-19.335,7.35"/>
	<path style="fill:#FFD6A0;" d="M255.998,413.767c20.646,0,31.95-8.138,40.206-14.082c6.583-4.739,10.21-7.35,19.335-7.35
		c9.122,0,12.748,2.61,19.329,7.35c8.254,5.943,19.558,14.082,40.202,14.082c20.644,0,31.949-8.14,40.203-14.082
		c6.581-4.739,10.208-7.35,19.329-7.35c2.505,0,4.588,0.204,6.439,0.588c5.237-10.658,9.668-21.823,13.22-33.405
		c-5.456-1.752-11.896-2.903-19.66-2.903c-20.644,0-31.949,8.14-40.203,14.082c-6.581,4.739-10.208,7.35-19.329,7.35
		s-12.748-2.61-19.329-7.35c-8.254-5.943-19.558-14.082-40.202-14.082c-20.646,0-31.951,8.138-40.206,14.082
		c-6.583,4.739-10.21,7.35-19.335,7.35"/>
	<path style="fill:#FFD6A0;" d="M464.372,291.721c0-4.582-0.08-9.146-0.227-13.693H255.999v35.721h207.333
		C464.017,306.502,464.372,299.154,464.372,291.721z"/>
	<path style="fill:#FFD6A0;" d="M431.528,133.953c-5.731-12.499-12.162-24.446-19.287-35.721H255.999v35.721H431.528z"/>
</g>
</svg>