<?xml version="1.0" encoding="iso-8859-1"?>
<!-- Uploaded to: SVG Repo, www.svgrepo.com, Generator: SVG Repo Mixer Tools -->
<svg height="800px" width="800px" version="1.1" id="Layer_1" xmlns="http://www.w3.org/2000/svg" xmlns:xlink="http://www.w3.org/1999/xlink" 
	 viewBox="0 0 512 512" xml:space="preserve">
<path style="fill:#F285B9;" d="M405.373,87.872C365.954,31.207,312.906,0,256,0S146.046,31.207,106.626,87.872
	c-38.045,54.691-58.998,127.086-58.998,203.849C47.628,413.183,141.102,512,256,512c114.896,0,208.372-98.817,208.372-220.279
	C464.372,214.958,443.419,142.563,405.373,87.872z"/>
<path style="fill:#EE5DA2;" d="M256,512c114.896,0,208.372-98.817,208.372-220.279c0-76.763-20.953-149.157-58.999-203.849
	C365.954,31.207,312.906,0,256,0"/>
<path style="fill:#FFF0B4;" d="M341.135,222.065c-14.257,0-43.608,14.537-66.531,27.238c12.701-22.925,27.238-52.275,27.238-66.531
	c0-25.318-20.524-45.842-45.842-45.842s-45.842,20.524-45.842,45.842c0,14.257,14.537,43.608,27.238,66.531
	c-22.923-12.701-52.274-27.238-66.531-27.238c-25.318,0-45.842,20.524-45.842,45.842s20.524,45.842,45.842,45.842
	c14.257,0,43.608-14.537,66.531-27.238c-12.701,22.923-27.238,52.274-27.238,66.531c0,25.318,20.524,45.842,45.842,45.842
	s45.842-20.524,45.842-45.842c0-14.257-14.537-43.608-27.238-66.531c22.923,12.701,52.274,27.238,66.531,27.238
	c25.318,0,45.842-20.524,45.842-45.842S366.453,222.065,341.135,222.065z"/>
<path style="fill:#FFDA44;" d="M256,398.884c25.318,0,45.842-20.524,45.842-45.842c0-14.257-14.537-43.608-27.238-66.531
	c22.923,12.701,52.274,27.238,66.531,27.238c25.318,0,45.842-20.524,45.842-45.842s-20.524-45.842-45.842-45.842
	c-14.257,0-43.608,14.537-66.531,27.238c12.701-22.925,27.238-52.275,27.238-66.531c0-25.318-20.524-45.842-45.842-45.842"/>
<circle style="fill:#FFC170;" cx="256" cy="267.907" r="35.721"/>
<path style="fill:#FF9811;" d="M256,232.186c19.727,0,35.721,15.993,35.721,35.721S275.727,303.628,256,303.628"/>
</svg>