<?xml version="1.0" encoding="iso-8859-1"?>
<!-- Uploaded to: SVG Repo, www.svgrepo.com, Generator: SVG Repo Mixer Tools -->
<svg height="800px" width="800px" version="1.1" id="Layer_1" xmlns="http://www.w3.org/2000/svg" xmlns:xlink="http://www.w3.org/1999/xlink" 
	 viewBox="0 0 512 512" xml:space="preserve">
<path style="fill:#C9E3F7;" d="M405.373,87.872C365.954,31.207,312.906,0,256,0S146.046,31.207,106.627,87.872
	c-38.046,54.691-58.999,127.086-58.999,203.849C47.628,413.183,141.104,512,256,512s208.372-98.817,208.372-220.279
	C464.372,214.958,443.419,142.563,405.373,87.872z"/>
<path style="fill:#AED5F3;" d="M256,512c114.896,0,208.372-98.817,208.372-220.279c0-76.763-20.953-149.157-58.999-203.849
	C365.954,31.207,312.906,0,256,0"/>
<g>
	<path style="fill:#FFDA44;" d="M457.626,217.501L256,267.907l206.711,51.677c1.094-9.128,1.661-18.427,1.661-27.864
		C464.372,266.341,462.067,241.444,457.626,217.501z"/>
	<path style="fill:#FFDA44;" d="M54.374,217.501c-4.441,23.943-6.746,48.84-6.746,74.22c0,9.436,0.566,18.736,1.661,27.864
		L256,267.907L54.374,217.501z"/>
</g>
<path style="fill:#FFFFFF;" d="M256.001,250.276c-0.558,5.356-12.58-13.231-20.999-21.385
	c-29.026-28.111-42.107-34.134-49.421-36.217c-5.034-1.435-10.222-2.161-15.422-2.161c-24.965,0-47.183,16.782-54.03,40.808
	c-3.635,12.756-2.667,26.069,2.547,37.92c-5.214,11.851-6.181,25.164-2.547,37.919c6.847,24.026,29.064,40.808,54.029,40.809h0.005
	c5.197,0,10.385-0.728,15.417-2.161c7.316-2.084,20.397-8.106,49.422-36.217c8.419-8.154,15.954-16.007,20.999-21.385
	C262.287,294.907,256.56,244.922,256.001,250.276z"/>
<path style="fill:#FFF0B4;" d="M255.999,250.276c0.558,5.356,12.58-13.231,20.999-21.385c29.026-28.111,42.107-34.134,49.421-36.217
	c5.034-1.435,10.222-2.161,15.422-2.161c24.965,0,47.183,16.782,54.03,40.808c3.635,12.756,2.667,26.069-2.547,37.92
	c5.214,11.851,6.181,25.164,2.547,37.919c-6.846,24.026-29.064,40.808-54.029,40.809h-0.005c-5.197,0-10.385-0.728-15.417-2.161
	c-7.316-2.084-20.397-8.106-49.422-36.217c-8.419-8.154-15.954-16.007-20.999-21.385
	C249.713,294.907,255.44,244.922,255.999,250.276z"/>
<circle style="fill:#FFDA44;" cx="256" cy="267.907" r="35.721"/>
<path style="fill:#FFAD41;" d="M256,232.186c19.727,0,35.721,15.993,35.721,35.721S275.727,303.628,256,303.628"/>
</svg>