<svg xmlns="http://www.w3.org/2000/svg" width="320" height="320" viewBox="0 0 320 320" version="1.1"><path d="M 215 96.586 C 212.835 97.519, 196.914 112.655, 173.248 136.281 L 134.996 174.469 121.748 161.334 C 114.462 154.110, 107.060 147.480, 105.300 146.600 C 101.343 144.622, 93.805 144.528, 90.200 146.411 C 81.611 150.898, 77.758 160.910, 81.399 169.282 C 82.169 171.052, 94.545 184.198, 108.901 198.495 L 135.004 224.489 186.101 173.495 C 215.144 144.511, 237.803 121.111, 238.599 119.282 C 243.560 107.887, 234.770 94.905, 222.185 95.039 C 220.158 95.061, 216.925 95.757, 215 96.586" stroke="none" fill="#fafbfc" fill-rule="evenodd"/><path d="M 66.514 1.250 C 63.964 8.776, -0.051 250.496, 0.183 251.713 C 0.433 253.010, 27.016 260.477, 124.500 286.636 C 192.700 304.936, 249.461 319.929, 250.635 319.954 C 252.449 319.993, 253.067 318.907, 254.737 312.750 C 274.383 240.334, 320.219 67.885, 319.904 67.571 C 319.394 67.061, 69.309 0, 67.915 0 C 67.377 0, 66.747 0.563, 66.514 1.250 M 215 96.586 C 212.835 97.519, 196.914 112.655, 173.248 136.281 L 134.996 174.469 121.748 161.334 C 114.462 154.110, 107.060 147.480, 105.300 146.600 C 101.343 144.622, 93.805 144.528, 90.200 146.411 C 81.611 150.898, 77.758 160.910, 81.399 169.282 C 82.169 171.052, 94.545 184.198, 108.901 198.495 L 135.004 224.489 186.101 173.495 C 215.144 144.511, 237.803 121.111, 238.599 119.282 C 243.560 107.887, 234.770 94.905, 222.185 95.039 C 220.158 95.061, 216.925 95.757, 215 96.586" stroke="none" fill="#0464fc" fill-rule="evenodd"/></svg>