<svg xmlns="http://www.w3.org/2000/svg" width="1024" height="1024" viewBox="0 0 1024 1024" version="1.1"><path d="M 245 214.431 C 238.020 216.373, 232.119 219.774, 226.488 225.100 C 212.491 238.338, 209.130 258.354, 217.942 276 C 219.568 279.255, 252.173 312.512, 335.839 396.250 L 451.488 512 335.839 627.750 C 252.173 711.488, 219.568 744.745, 217.942 748 C 209.130 765.646, 212.491 785.662, 226.488 798.900 C 240.217 811.885, 258.918 814.588, 276 806.058 C 279.255 804.432, 312.512 771.827, 396.250 688.161 L 512 572.512 627.750 688.161 C 711.488 771.827, 744.745 804.432, 748 806.058 C 765.646 814.870, 785.662 811.509, 798.900 797.512 C 811.885 783.783, 814.588 765.082, 806.058 748 C 804.432 744.745, 771.827 711.488, 688.161 627.750 L 572.512 512 688.161 396.250 C 771.827 312.512, 804.432 279.255, 806.058 276 C 814.588 258.918, 811.885 240.217, 798.900 226.488 C 785.662 212.491, 765.646 209.130, 748 217.942 C 744.745 219.568, 711.488 252.173, 627.750 335.839 L 512 451.488 396.250 335.839 C 312.512 252.173, 279.255 219.568, 276 217.942 C 266.330 213.113, 254.537 211.777, 245 214.431" stroke="none" fill="#fffcfc" fill-rule="evenodd"/><path d="" stroke="none" fill="#fcfcfc" fill-rule="evenodd"/></svg>